<svg width="538" height="566" viewBox="0 0 538 566" fill="none" xmlns="http://www.w3.org/2000/svg">
<g clip-path="url(#clip0_1_2)">
<path d="M63.4504 215.231L84.1089 132.04C84.9938 128.518 87.1158 125.516 90.0171 123.682C92.9184 121.847 96.3663 121.327 99.6168 122.234C101.298 122.703 102.874 123.54 104.249 124.694C105.624 125.847 106.768 127.293 107.612 128.944C108.456 130.594 108.983 132.414 109.159 134.293C109.336 136.172 109.159 138.07 108.639 139.872L84.7447 225.572L72.2433 278.312C74.064 279.825 75.4126 281.91 76.1059 284.286C76.7992 286.661 76.8035 289.212 76.1183 291.59C75.4331 293.968 74.0915 296.059 72.2759 297.579C70.4603 299.099 68.2586 299.974 65.9701 300.085C63.6815 300.196 61.417 299.538 59.4842 298.2C57.5514 296.862 56.044 294.909 55.1668 292.607C54.2896 290.305 54.0851 287.764 54.5811 285.331C55.0772 282.898 56.2497 280.69 57.9394 279.007L63.4504 215.231Z" fill="#FFB6B6"/>
<path d="M299.632 171.577L221.74 155.953C218.441 155.281 215.519 153.224 213.602 150.228C211.685 147.231 210.928 143.535 211.494 139.936C211.786 138.074 212.425 136.297 213.369 134.713C214.314 133.128 215.546 131.769 216.989 130.72C218.432 129.67 220.056 128.951 221.763 128.606C223.47 128.262 225.223 128.299 226.916 128.716L307.371 147.644L356.703 156.904C357.94 154.806 359.741 153.174 361.861 152.228C363.981 151.283 366.316 151.071 368.551 151.62C370.785 152.169 372.81 153.454 374.35 155.299C375.891 157.144 376.872 159.46 377.16 161.932C377.448 164.405 377.03 166.914 375.961 169.119C374.893 171.324 373.227 173.117 371.189 174.256C369.152 175.395 366.841 175.824 364.572 175.484C362.302 175.144 360.184 174.053 358.504 172.358L299.632 171.577Z" fill="#FFB6B6"/>
<path d="M91.2021 548.581L104.703 548.58L111.124 491.928L91.2001 491.929L91.2021 548.581Z" fill="#FFB6B6"/>
<path d="M90.7272 563.904L132.241 563.902V563.331C132.241 558.668 130.538 554.197 127.508 550.9C124.478 547.603 120.368 545.751 116.083 545.751L108.499 539.492L94.3505 545.752L90.7265 545.752L90.7272 563.904Z" fill="#2F2E41"/>
<path d="M186.204 548.729L199.495 546.15L196.677 489.149L177.062 492.956L186.204 548.729Z" fill="#FFB6B6"/>
<path d="M188.209 563.904L229.078 555.974L228.985 555.412C228.233 550.822 225.836 546.745 222.32 544.078C218.805 541.411 214.461 540.372 210.242 541.191L201.766 536.477L188.847 545.342L185.279 546.034L188.209 563.904Z" fill="#2F2E41"/>
<path d="M184.888 288.101C184.888 288.101 197.47 307.49 196.957 313.996C196.444 320.502 192.001 315.312 196.444 320.502C200.887 325.693 203.476 322.211 201.293 328.623C199.11 335.036 198.221 330.883 199.11 335.036C199.999 339.188 198.221 498.014 198.221 498.014H175.086C175.086 498.014 162.038 405.92 163.69 401.62C165.342 397.32 165.304 399.192 163.545 394.623C161.787 390.054 160.132 384.618 160.132 384.618L141.845 328.623L127.738 407.463L111.134 501.148H88.9625C88.9625 501.148 85.166 363.383 83.4874 361.666C81.8088 359.95 83.817 356.092 85.9232 353.868C88.0293 351.645 87.6095 349.387 86.9308 344.807C86.252 340.226 83.3887 337.671 83.4874 334.796C83.5861 331.921 77.3656 286.246 87.1407 278.979C96.9158 271.713 184.888 288.101 184.888 288.101Z" fill="#2F2E41"/>
<path d="M107.53 94.9764L133.41 87.6802L145.49 69.5526L174.179 73.3898L180.286 98.116L200.711 111.015C164.098 111.253 183.815 226.655 178.434 234.101C174.055 240.16 200.291 254.575 192.069 263.77C183.846 272.965 186.886 269.286 188.794 279.296C190.702 289.307 204.611 299.901 188.794 299.796C172.977 299.691 77.5336 298.208 80.2605 286.34C82.9873 274.473 82.9445 277.486 87.0564 270.046C91.1683 262.605 93.9356 266.763 92.552 255.783C91.1683 244.804 95.6624 236.312 92.5317 231.453C87.7263 223.995 92.569 170.161 97.1002 171.598L107.53 94.9764Z" fill="#E9967A"/>
<path d="M114.919 95.3613C114.919 95.3613 95.9884 86.6113 89.171 102.929C86.9935 108.141 85.1601 121.232 83.3935 118.329C81.6269 115.426 83.3314 121.79 82.2379 121.798C81.2618 121.805 79.761 120.087 80.8953 126.005C81.2506 127.946 81.1483 129.953 80.598 131.84C80.0476 133.726 79.0671 135.431 77.7479 136.793L110.65 158.233L114.919 95.3613Z" fill="#E9967A"/>
<path d="M171.908 126.642C171.908 126.642 182.078 103.798 198.176 109.597C202.703 111.228 208.82 118.991 211.197 114.904C213.573 110.817 214.122 116.241 215.489 116.89C217.013 117.613 218.037 123.112 219.783 118.98C221.529 114.847 229.316 124.013 229.316 124.013L215.619 168.204L171.908 126.642Z" fill="#E9967A"/>
<path d="M177.07 85.757L182.524 96.1411C182.524 96.1411 197.522 105.042 197.522 106.525C197.522 108.009 194.795 120.121 197.522 129.641C200.249 139.161 192.317 157.064 190.705 171.797C183.888 234.101 204.161 256.739 208.43 296.406L165.164 310.154C165.164 310.154 157.982 205.916 157.982 182.181C157.982 158.446 177.07 85.757 177.07 85.757Z" fill="#2F2E41"/>
<path d="M137.529 81.3067L126.384 88.2041C126.384 88.2041 111.798 91.703 111.623 93.1743C111.449 94.6455 111.397 110.283 107.575 119.345C103.753 128.408 104.806 133.227 94.5121 160.019C89.2525 173.707 77.1779 283.228 77.1779 283.228L118.476 302.876C118.476 302.876 137.837 200.49 140.624 176.95C143.41 153.409 137.529 81.3067 137.529 81.3067Z" fill="#2F2E41"/>
<path d="M165.399 67.1635C149.829 67.1635 137.206 53.4306 137.206 36.4902C137.206 19.5499 149.829 5.81702 165.399 5.81702C180.969 5.81702 193.592 19.5499 193.592 36.4902C193.592 53.4306 180.969 67.1635 165.399 67.1635Z" fill="#FFB6B6"/>
<path d="M146.845 60.3221C153.509 54.6546 144.399 29.723 155.405 35.0446C155.405 35.0446 168.856 25.7318 171.558 31.8516C174.687 38.9378 185.816 35.7231 192.652 33.222C192.114 31.8633 191.732 30.438 191.514 28.978C192.776 30.0596 194.113 31.0337 195.513 31.8916C196.452 31.3458 197.283 30.6044 197.959 29.7097C198.625 28.8788 199.043 27.8459 199.154 26.7495C199.266 25.6532 199.066 24.5459 198.582 23.5766C197.445 21.6741 195.097 21.0888 193.715 19.3991C193.556 19.1615 193.451 18.8853 193.411 18.5942C193.372 18.3031 193.397 18.0058 193.486 17.7278C193.651 17.048 193.675 16.3371 193.559 15.6457C193.442 14.9542 193.187 14.2993 192.811 13.7275C192.435 13.1558 191.947 12.6813 191.383 12.3378C190.82 11.9944 190.193 11.7905 189.549 11.7406C189.289 11.7492 189.032 11.6882 188.8 11.5631C187.64 10.7906 186.568 9.87059 185.608 8.82246C187.21 8.90228 185.251 -1.7659 169.369 0.254691C165.371 0.0950582 163.283 4.89297 159.345 5.65131C149.801 -0.282453 141.281 8.27703 137.136 16.4589C132.991 24.6409 128.503 51.0094 146.845 60.3221Z" fill="#2F2E41"/>
</g>
<rect x="-0.5" y="0.5" width="537" height="565" rx="0.5" transform="matrix(-1 0 0 1 537 -5.96047e-08)" stroke="black"/>
<defs>
<clipPath id="clip0_1_2">
<rect width="538" height="566" rx="1" transform="matrix(-1 0 0 1 538 0)" fill="white"/>
</clipPath>
</defs>
</svg>
